<?xml version="1.0" standalone="no"?>
<!DOCTYPE svg PUBLIC "-//W3C//DTD SVG 20010904//EN"
 "http://www.w3.org/TR/2001/REC-SVG-20010904/DTD/svg10.dtd">
<svg version="1.0" xmlns="http://www.w3.org/2000/svg"
 width="300.000000pt" height="336.000000pt" viewBox="0 0 300.000000 336.000000"
 preserveAspectRatio="xMidYMid meet">
<metadata>
Created by potrace 1.10, written by Peter Selinger 2001-2011
</metadata>
<g transform="translate(0.000000,336.000000) scale(0.100000,-0.100000)"
fill="#000000" stroke="none">
<path d="M1135 2300 c-24 -27 -7 -68 32 -76 16 -3 37 -17 47 -31 17 -23 18
-27 4 -37 -19 -14 -9 -39 29 -71 21 -19 23 -28 23 -132 l0 -111 50 -60 50 -60
61 2 c46 1 63 6 71 20 5 9 22 32 38 49 26 30 28 38 32 150 4 117 4 118 36 147
34 30 39 49 21 67 -14 14 13 53 53 76 32 19 36 47 10 70 -16 15 -51 17 -279
17 -247 0 -261 -1 -278 -20z m553 -25 c-3 -14 -39 -16 -271 -18 -248 -2 -267
-1 -267 16 0 16 20 17 271 17 238 0 270 -2 267 -15z m-78 -65 c0 -19 -7 -20
-185 -20 -178 0 -185 1 -185 20 0 19 7 20 185 20 178 0 185 -1 185 -20z m0
-75 c0 -24 -2 -25 -66 -25 l-66 0 4 -180 3 -180 -23 0 c-23 0 -23 0 -21 133 1
114 -1 132 -15 135 -14 3 -16 -13 -16 -132 l0 -136 -24 0 -23 0 5 180 5 180
-67 0 c-64 0 -66 1 -66 25 l0 25 185 0 185 0 0 -25z m-270 -180 c0 -113 -2
-135 -15 -135 -13 0 -15 22 -15 135 0 113 2 135 15 135 13 0 15 -22 15 -135z
m200 0 c0 -113 -2 -135 -15 -135 -13 0 -15 22 -15 135 0 113 2 135 15 135 13
0 15 -22 15 -135z"/>
<path d="M185 1645 c-40 -39 -27 -107 22 -126 15 -6 31 -16 35 -22 4 -7 8 -52
8 -102 0 -96 3 -106 37 -124 32 -16 57 -14 87 10 25 20 26 24 26 120 0 86 2
101 18 106 9 3 29 15 45 25 l27 19 0 -29 c0 -16 -7 -35 -15 -42 -23 -19 -18
-75 13 -140 26 -57 52 -80 90 -80 25 0 62 28 72 56 14 35 46 30 96 -16 47 -43
77 -49 122 -26 24 12 30 12 47 0 49 -36 125 2 125 62 0 45 17 43 37 -3 22 -56
42 -73 80 -73 34 0 83 38 83 65 0 13 31 25 67 25 12 0 42 16 67 35 49 38 50
37 61 -27 7 -44 50 -84 101 -94 20 -4 66 -4 102 -1 62 5 69 8 104 46 22 23 40
41 41 41 2 0 3 -10 4 -21 1 -12 12 -32 24 -45 20 -22 31 -24 108 -24 47 0 103
5 124 11 49 13 109 68 136 122 14 28 21 35 21 22 2 -89 9 -120 30 -137 31 -25
73 -22 107 6 l28 24 28 -24 c25 -21 38 -24 110 -24 91 0 131 16 164 66 26 40
23 121 -5 162 -18 25 -21 36 -12 51 17 33 12 89 -10 111 -16 16 -33 20 -90 20
-88 0 -131 -17 -164 -66 l-26 -39 0 31 c0 64 -93 101 -135 54 -17 -19 -21 -38
-25 -130 -1 -22 -4 -20 -19 15 -23 51 -89 111 -138 124 -48 14 -198 14 -223 1
-10 -5 -24 -26 -30 -46 l-12 -37 -26 33 c-34 44 -78 60 -159 60 -75 0 -119
-19 -149 -64 l-16 -26 -44 39 c-50 44 -76 51 -181 51 -65 0 -77 -3 -98 -25
-21 -20 -25 -34 -25 -83 0 -53 -11 -82 -32 -82 -4 0 -8 33 -8 73 0 64 -3 76
-23 95 -29 27 -77 28 -108 3 -22 -18 -24 -28 -29 -148 -5 -124 -6 -127 -22
-104 -13 19 -16 38 -12 85 4 51 1 67 -18 100 -36 62 -92 86 -199 86 -82 0 -90
-2 -112 -26 l-24 -26 -26 26 c-25 25 -31 26 -142 26 -110 0 -117 -1 -140 -25z
m820 -175 l0 -170 -42 0 -43 0 0 170 0 170 43 0 42 0 0 -170z m1077 136 c102
-68 96 -224 -10 -284 -34 -19 -55 -22 -146 -22 l-106 0 0 168 0 167 117 -5
c92 -4 124 -9 145 -24z m241 -139 l2 -167 -42 0 -43 0 0 171 0 170 41 -3 41
-3 1 -168z m307 128 l0 -45 -70 0 c-66 0 -70 -1 -70 -22 0 -21 4 -23 48 -20
41 3 54 -1 80 -23 29 -24 32 -32 32 -81 0 -45 -4 -59 -25 -79 -22 -23 -31 -25
-125 -25 l-100 0 0 40 0 40 85 0 c77 0 85 2 85 19 0 16 -10 19 -60 23 -82 6
-105 28 -105 102 0 44 5 59 24 80 21 23 33 26 110 29 47 1 87 4 89 5 1 1 2
-18 2 -43z m-2180 -5 l0 -40 -42 0 -43 0 3 -125 3 -125 -45 0 -46 0 0 125 0
125 -42 0 -43 0 0 40 0 40 128 0 127 0 0 -40z m325 7 c43 -43 53 -92 29 -142
-16 -35 -16 -38 -1 -47 17 -9 67 -87 67 -104 0 -5 -20 -8 -45 -6 -33 3 -46 9
-50 23 -12 36 -54 59 -109 59 l-52 0 4 -40 4 -40 -46 0 -46 0 0 40 c0 33 -3
40 -20 40 -17 0 -20 7 -20 46 0 41 2 45 20 39 19 -6 20 -2 20 79 l0 86 106 0
106 0 33 -33z m565 17 c38 -23 60 -64 60 -113 0 -33 -7 -49 -34 -78 -31 -34
-38 -37 -100 -41 l-66 -4 0 -39 0 -39 -44 0 -44 0 5 40 c5 37 4 40 -19 40 -22
0 -24 4 -23 43 1 38 3 42 24 39 23 -4 23 -2 20 82 l-4 86 98 0 c74 0 106 -4
127 -16z m375 -9 c24 -23 25 -30 25 -140 0 -110 -1 -117 -25 -140 -22 -23 -32
-25 -109 -25 -100 0 -112 4 -131 41 -21 39 -20 209 0 249 19 37 24 38 128 39
81 1 90 -1 112 -24z m673 -160 c16 -35 15 -43 -8 -55 -19 -10 -20 -8 -20 35 0
50 11 58 28 20z"/>
<path d="M1905 1465 l0 -85 48 0 c52 0 101 20 111 45 13 35 6 76 -19 100 -20
21 -34 25 -82 25 l-58 0 0 -85z m115 31 c29 -36 -18 -90 -64 -73 -16 6 -23 66
-9 80 12 12 60 7 73 -7z"/>
<path d="M616 1508 c1 -42 2 -43 37 -46 46 -4 77 13 77 41 0 34 -19 47 -69 47
l-46 0 1 -42z"/>
<path d="M1200 1505 l0 -45 38 0 c40 0 82 23 82 45 0 27 -31 45 -76 45 l-44 0
0 -45z"/>
<path d="M1548 1465 l3 -85 55 0 54 0 0 85 0 85 -57 0 -58 0 3 -85z m67 0 c0
-42 -19 -58 -30 -25 -9 29 3 72 18 67 7 -2 12 -21 12 -42z"/>
<path d="M1167 1190 c-23 -21 -30 -35 -31 -69 -1 -36 4 -47 32 -72 40 -36 64
-37 97 -4 20 21 25 36 25 74 0 88 -63 125 -123 71z m93 -25 c0 -9 -9 -15 -25
-15 -14 0 -25 -4 -25 -10 0 -5 12 -10 26 -10 16 0 24 -5 21 -12 -2 -7 -14 -12
-25 -10 -12 2 -22 -2 -22 -7 0 -6 11 -11 25 -11 16 0 25 -6 25 -15 0 -11 -11
-15 -39 -15 -34 0 -39 3 -44 27 -3 15 -3 42 0 60 5 31 8 33 44 33 28 0 39 -4
39 -15z"/>
<path d="M1405 1206 c-55 -24 -72 -101 -32 -148 31 -38 84 -46 119 -18 24 18
27 27 26 80 -1 64 -13 83 -58 93 -14 3 -39 0 -55 -7z m85 -41 c0 -10 -11 -15
-35 -15 -32 0 -35 -2 -35 -30 0 -23 4 -30 20 -30 11 0 20 7 20 15 0 8 7 15 15
15 10 0 15 -10 15 -31 0 -30 -1 -30 -47 -27 l-48 3 -3 49 c-4 56 5 66 61 66
26 0 37 -4 37 -15z"/>
<path d="M952 1187 c-15 -16 -22 -36 -22 -64 0 -55 7 -71 39 -88 41 -21 78 -9
99 31 9 18 8 25 -8 39 -11 10 -20 27 -20 37 0 19 -42 68 -58 68 -5 0 -18 -10
-30 -23z m48 -52 c0 -38 3 -45 20 -45 11 0 20 -7 20 -15 0 -10 -11 -15 -35
-15 l-35 0 0 60 c0 47 3 60 15 60 11 0 15 -12 15 -45z"/>
<path d="M1627 1190 c-38 -30 -52 -81 -33 -119 18 -34 35 -41 93 -37 58 3 73
19 73 75 0 83 -74 128 -133 81z m87 -32 c9 -12 16 -39 16 -60 0 -31 -4 -38
-20 -38 -13 0 -18 5 -14 15 4 10 0 15 -15 15 -12 0 -21 -6 -21 -15 0 -25 -27
-17 -34 9 -7 27 9 76 27 88 22 14 46 8 61 -14z"/>
<path d="M1852 1194 c-18 -13 -22 -25 -22 -73 0 -66 16 -89 68 -95 23 -2 37 3
53 20 l22 23 -32 65 c-25 52 -46 76 -65 76 -1 0 -12 -7 -24 -16z m44 -59 c-7
-43 -6 -45 18 -45 16 0 26 -6 26 -15 0 -11 -11 -15 -40 -15 l-40 0 0 60 c0 54
2 60 21 60 20 0 21 -4 15 -45z"/>
<path d="M745 1173 c-16 -3 -34 -9 -39 -14 -6 -5 -103 -9 -218 -9 -192 0 -208
-1 -217 -19 -8 -14 -6 -22 8 -35 16 -15 45 -17 217 -16 110 0 219 -5 244 -10
64 -16 83 -14 103 11 23 29 22 51 -6 77 -23 22 -33 23 -92 15z m83 -50 c4 -30
-31 -49 -52 -27 -19 19 -20 26 -4 42 19 19 53 10 56 -15z m-80 -6 c2 -12 -3
-17 -17 -17 -15 0 -21 6 -21 21 0 25 33 22 38 -4z m-58 3 c0 -6 -75 -10 -205
-10 -130 0 -205 4 -205 10 0 6 75 10 205 10 130 0 205 -4 205 -10z"/>
<path d="M2051 1154 c-26 -33 -26 -45 -1 -72 20 -21 34 -27 55 -22 84 16 140
21 302 23 166 2 195 4 209 19 14 14 15 20 4 32 -10 14 -44 16 -212 16 -110 0
-207 4 -216 9 -9 5 -40 12 -68 16 -48 6 -53 5 -73 -21z m73 -20 c10 -25 7 -33
-13 -43 -27 -15 -56 9 -47 37 9 26 51 30 60 6z m61 -4 c4 -6 1 -18 -6 -26 -11
-13 -14 -13 -27 0 -8 8 -11 19 -8 25 9 14 33 14 41 1z m435 -10 c0 -6 -77 -10
-210 -10 -133 0 -210 4 -210 10 0 6 77 10 210 10 133 0 210 -4 210 -10z"/>
</g>
</svg>
